<?xml version="1.0" encoding="iso-8859-1"?>
<!-- Generator: Adobe Illustrator 18.1.1, SVG Export Plug-In . SVG Version: 6.00 Build 0)  -->
<svg version="1.1" id="Capa_1" xmlns="http://www.w3.org/2000/svg" xmlns:xlink="http://www.w3.org/1999/xlink" x="0px" y="0px"
	 viewBox="0 0 316.282 316.282" style="enable-background:new 0 0 316.282 316.282;" xml:space="preserve">
<g>
	<g>
		<path style="fill:#010002;" d="M281.618,263.725c0.457-1.126,0.68-2.306,0.68-3.525V150.968c0-5.243-4.259-9.518-9.513-9.518
			h-92.399V87.564l-2.328-0.528c-1.653-0.37-7.365-1.621-13.581-2.611c0-0.696,0.054-1.507,0.169-2.415
			c0.441,0.169,0.908,0.299,1.409,0.397c0.609,0.114,1.262,0.169,1.925,0.169c3.78,0,7.87-1.773,10.204-4.427
			c4.047-5.216,1.73-12.178,0.484-15.926c-2.986-8.953-9.915-21.441-17.383-27.973c-0.848-0.756-2.143-0.952-3.214-0.484
			c-1.071,0.49-1.762,1.561-1.762,2.736c0,3.535-0.375,7.098-1.191,11.188c-0.68,2.953-2.002,4.803-3.568,7.006
			c-0.903,1.262-1.936,2.714-2.97,4.601c-4.732,9.448,1.093,14.957,5.347,18.982c1.496,1.42,3.051,2.899,4.232,4.476
			c0.109,0.141,0.228,0.267,0.354,0.397c-0.011,0.141-0.011,0.299-0.022,0.457c-2.692-0.315-4.993-0.468-6.842-0.468
			c-3.079,0-6.772,0.354-8.012,3.171c-0.446,1.012-0.865,3.04,1.278,5.385c0.669,1.463,1.12,10.47-0.451,44.394
			c-0.109,2.328-0.185,4.063-0.234,5.368H48.272c-5.249,0-9.518,4.275-9.518,9.518v109.233c0,1.224,0.234,2.399,0.691,3.525H0
			l11.493,18.395l0.413,0.636h290.098l14.278-19.031h-34.663V263.725z M166.191,74.337c1.702-7.245,3.486-14.745,0.158-19.488
			l-0.794-1.126l-4.906,3.437l0.783,1.126c1.779,2.556,0.125,9.556-1.088,14.685l-0.098,0.441c-0.169,0.723-0.337,1.452-0.506,2.159
			c-0.538-0.555-1.11-1.11-1.719-1.675c-4.248-4.036-6.81-6.462-4.134-11.835c0.783-1.403,1.588-2.573,2.578-3.949
			c1.817-2.54,3.535-4.944,4.509-9.176c0.375-1.871,0.664-3.622,0.887-5.325c5.086,6.434,9.203,14.789,11.123,20.511
			c1.224,3.709,2.382,7.87,0.577,10.198c-1.273,1.463-4.275,2.584-6.418,2.187c-0.984-0.185-1.153-0.609-1.224-0.821
			c-0.016-0.027-0.016-0.054-0.033-0.087L166.191,74.337z M260.509,192.081c-4.351,2.85-9.007,3.65-14.577,2.361
			c-8.898-1.49-17.111-13.266-23.709-22.746c-5.825-8.338-10.443-14.936-15.556-14.936c-0.865,0-1.713,0.201-2.556,0.582
			c-3.992,1.887-5.624,7.109-7.517,13.173c-2.828,9.061-5.755,18.428-15.996,18.428c-1.621,0-3.378-0.228-5.27-0.685
			c-8.664-2.181-14.947-8.73-21.065-15.099c-6.293-6.576-12.232-12.787-20.647-14.479l-2.486-0.511l-0.908,2.371
			c-7.06,18.574-16.393,35.751-36.638,35.751c-1.512,0-3.084-0.103-4.618-0.272c-12.657-2.562-20.228-11.509-27.56-20.19
			c-4.672-5.526-9.959-11.759-16.649-15.915v-8.953c0-1.947,1.577-3.525,3.514-3.525h97.294l0.348,0.37l1.289-0.027
			c0.533,0,1.012-0.114,1.42-0.343h124.163c1.942,0,3.519,1.577,3.519,3.525l0.027,11.797
			C274.444,173.148,269.304,186.3,260.509,192.081z"/>
	</g>
</g>
<g>
</g>
<g>
</g>
<g>
</g>
<g>
</g>
<g>
</g>
<g>
</g>
<g>
</g>
<g>
</g>
<g>
</g>
<g>
</g>
<g>
</g>
<g>
</g>
<g>
</g>
<g>
</g>
<g>
</g>
</svg>
